# xmcd CD database file
#
# Track frame offsets:
#	150
#	31479
#	65489
#	111130
#	132347
#	153765
#	171627
#	183071
#	205301
#	220985
#	254397
#	281000
#	296833
#	326702
#
# Disc length: 4605 seconds
#
# Revision: 0
# Processed by: cddbd v1.5.2PL0 Copyright (c) Steve Scherf et al.
# Submitted via: CDex 1.51
#
DISCID=dd11fb0e
DTITLE=Wes Montgomery - Wes Montgomery Three Classic Albums Disc 1
DYEAR=1957
DGENRE=Jazz
TTITLE0=Sound Carrier (Fingerpickin'-1957)
TTITLE1=Bud's Beaux Arts
TTITLE2=Bock To Bock
TTITLE3=Billie's Bounce
TTITLE4=Lois Ann
TTITLE5=All The Things You Are
TTITLE6=Fingerpickin'
TTITLE7=Stranger In Paradise
TTITLE8=Baubles, Bangles And Beads
TTITLE9=Not Since Ninevah
TTITLE10=Far Wes (Far Wes-1958)
TTITLE11=Leila
TTITLE12=Old Folks
TTITLE13=Wes' Tune
EXTD=YEAR: 1957
EXTT0=
EXTT1=
EXTT2=
EXTT3=
EXTT4=
EXTT5=
EXTT6=
EXTT7=
EXTT8=
EXTT9=
EXTT10=
EXTT11=
EXTT12=
EXTT13=
PLAYORDER=
